<svg width="132" height="19" viewBox="0 0 132 19" fill="none" xmlns="http://www.w3.org/2000/svg">
<path d="M10.688 9.36C11.664 9.568 12.448 10.056 13.04 10.824C13.632 11.576 13.928 12.44 13.928 13.416C13.928 14.824 13.432 15.944 12.44 16.776C11.464 17.592 10.096 18 8.336 18H0.488V1.152H8.072C9.784 1.152 11.12 1.544 12.08 2.328C13.056 3.112 13.544 4.176 13.544 5.52C13.544 6.512 13.28 7.336 12.752 7.992C12.24 8.648 11.552 9.104 10.688 9.36ZM4.592 7.968H7.28C7.952 7.968 8.464 7.824 8.816 7.536C9.184 7.232 9.368 6.792 9.368 6.216C9.368 5.64 9.184 5.2 8.816 4.896C8.464 4.592 7.952 4.44 7.28 4.44H4.592V7.968ZM7.616 14.688C8.304 14.688 8.832 14.536 9.2 14.232C9.584 13.912 9.776 13.456 9.776 12.864C9.776 12.272 9.576 11.808 9.176 11.472C8.792 11.136 8.256 10.968 7.568 10.968H4.592V14.688H7.616ZM20.4123 4.44V7.848H25.9083V11.016H20.4123V14.712H26.6283V18H16.3083V1.152H26.6283V4.44H20.4123Z" fill="#02A4FF"/>
<path d="M40.2607 1.152V4.44H33.3967V7.992H38.5327V11.184H33.3967V18H29.2927V1.152H40.2607ZM46.5217 1.152V18H42.4177V1.152H46.5217ZM64.5678 18H60.4638L53.5998 7.608V18H49.4958V1.152H53.5998L60.4638 11.592V1.152H64.5678V18ZM78.0307 15.024H71.7427L70.7347 18H66.4387L72.5347 1.152H77.2867L83.3827 18H79.0387L78.0307 15.024ZM76.9747 11.856L74.8867 5.688L72.8227 11.856H76.9747ZM100.31 18H96.206L89.342 7.608V18H85.238V1.152H89.342L96.206 11.592V1.152H100.31V18ZM102.589 9.552C102.589 7.888 102.949 6.408 103.669 5.112C104.389 3.8 105.389 2.784 106.669 2.064C107.965 1.328 109.429 0.959999 111.061 0.959999C113.061 0.959999 114.773 1.488 116.197 2.544C117.621 3.6 118.573 5.04 119.053 6.864H114.541C114.205 6.16 113.725 5.624 113.101 5.256C112.493 4.888 111.797 4.704 111.013 4.704C109.749 4.704 108.725 5.144 107.941 6.024C107.157 6.904 106.765 8.08 106.765 9.552C106.765 11.024 107.157 12.2 107.941 13.08C108.725 13.96 109.749 14.4 111.013 14.4C111.797 14.4 112.493 14.216 113.101 13.848C113.725 13.48 114.205 12.944 114.541 12.24H119.053C118.573 14.064 117.621 15.504 116.197 16.56C114.773 17.6 113.061 18.12 111.061 18.12C109.429 18.12 107.965 17.76 106.669 17.04C105.389 16.304 104.389 15.288 103.669 13.992C102.949 12.696 102.589 11.216 102.589 9.552ZM125.67 4.44V7.848H131.166V11.016H125.67V14.712H131.886V18H121.566V1.152H131.886V4.44H125.67Z" fill="#FFE602"/>
</svg>
